<svg width="256" height="256" viewBox="0 0 256 256" fill="none" xmlns="http://www.w3.org/2000/svg">
<g clip-path="url(#clip0_20_8)">
<path d="M256 128C256 124.559 254.686 121.248 252.326 118.744C249.966 116.239 246.74 114.73 243.305 114.525L234.5 78.72C236.317 77.6578 237.861 76.1854 239.008 74.4202C240.155 72.655 240.874 70.6461 241.106 68.5538C241.338 66.4615 241.078 64.344 240.346 62.3702C239.614 60.3965 238.431 58.6212 236.89 57.1863C235.35 55.7514 233.495 54.6966 231.475 54.1062C229.454 53.5158 227.324 53.4061 225.253 53.7858C223.182 54.1656 221.229 55.0243 219.55 56.2934C217.87 57.5625 216.511 59.2068 215.58 61.095L141.355 49.53C140.882 46.3263 139.272 43.3995 136.821 41.2835C134.369 39.1675 131.238 38.0033 128 38.0033C124.761 38.0033 121.631 39.1675 119.179 41.2835C116.728 43.3995 115.118 46.3263 114.645 49.53L40.4199 61.095C39.4891 59.2068 38.1296 57.5625 36.45 56.2934C34.7705 55.0243 32.8174 54.1656 30.7468 53.7858C28.6763 53.4061 26.5456 53.5158 24.525 54.1062C22.5043 54.6966 20.6498 55.7514 19.1095 57.1863C17.5691 58.6212 16.3857 60.3965 15.6538 62.3702C14.9218 64.344 14.6615 66.4615 14.8938 68.5538C15.126 70.6461 15.8444 72.655 16.9914 74.4202C18.1385 76.1854 19.6824 77.6578 21.4999 78.72L12.6949 114.525C9.26301 114.734 6.04023 116.245 3.68412 118.749C1.328 121.253 0.0161133 124.562 0.0161133 128C0.0161133 131.438 1.328 134.747 3.68412 137.251C6.04023 139.755 9.26301 141.266 12.6949 141.475L21.4999 177.28C19.6824 178.342 18.1385 179.815 16.9914 181.58C15.8444 183.345 15.126 185.354 14.8938 187.446C14.6615 189.538 14.9218 191.656 15.6538 193.63C16.3857 195.604 17.5691 197.379 19.1095 198.814C20.6498 200.249 22.5043 201.303 24.525 201.894C26.5456 202.484 28.6763 202.594 30.7468 202.214C32.8174 201.834 34.7705 200.976 36.45 199.707C38.1296 198.437 39.4891 196.793 40.4199 194.905L114.645 206.47C115.118 209.674 116.728 212.6 119.179 214.716C121.631 216.832 124.761 217.997 128 217.997C131.238 217.997 134.369 216.832 136.821 214.716C139.272 212.6 140.882 209.674 141.355 206.47L215.58 194.905C216.511 196.793 217.87 198.437 219.55 199.707C221.229 200.976 223.182 201.834 225.253 202.214C227.324 202.594 229.454 202.484 231.475 201.894C233.495 201.303 235.35 200.249 236.89 198.814C238.431 197.379 239.614 195.604 240.346 193.63C241.078 191.656 241.338 189.538 241.106 187.446C240.874 185.354 240.155 183.345 239.008 181.58C237.861 179.815 236.317 178.342 234.5 177.28L243.305 141.5C246.744 141.295 249.974 139.782 252.335 137.272C254.695 134.762 256.006 131.445 256 128ZM221.39 177L212.955 168.56C212.204 167.809 211.186 167.388 210.125 167.388C209.063 167.388 208.045 167.809 207.295 168.56C206.544 169.311 206.123 170.329 206.123 171.39C206.123 172.451 206.544 173.469 207.295 174.22L215.735 182.655C215.018 184.019 214.541 185.495 214.325 187.02L140.12 198.565C139.309 196.915 138.171 195.447 136.775 194.251C135.379 193.055 133.754 192.154 132 191.605V169H191.5C195.743 169 199.813 167.314 202.814 164.314C205.814 161.313 207.5 157.243 207.5 153V132H229.605C230.592 135.161 232.704 137.851 235.54 139.56L226.705 175.5C224.848 175.625 223.038 176.136 221.39 177ZM115.89 198.58L41.6749 187C41.4583 185.475 40.9814 183.999 40.2649 182.635L56.2199 166.68C58.7139 168.2 61.579 169.003 64.4999 169H124V191.605C122.245 192.154 120.621 193.055 119.225 194.251C117.829 195.447 116.691 196.915 115.88 198.565L115.89 198.58ZM29.2949 175.5L20.4599 139.56C23.2962 137.851 25.4076 135.161 26.3949 132H48.4999V153C48.4981 155.794 49.2328 158.54 50.6299 160.96L34.6099 177C32.9614 176.137 31.1514 175.626 29.2949 175.5ZM34.6099 79L50.6099 95.025C49.2172 97.4514 48.4894 100.202 48.4999 103V124H26.3949C25.4076 120.839 23.2962 118.149 20.4599 116.44L29.2949 80.525C31.1534 80.3918 32.9636 79.8724 34.6099 79ZM124 64.395V87H103.415C102.354 87 101.337 87.4214 100.586 88.1716C99.8363 88.9217 99.4149 89.9391 99.4149 91C99.4149 92.0608 99.8363 93.0783 100.586 93.8284C101.337 94.5786 102.354 95 103.415 95H191.5C193.622 95 195.656 95.8428 197.157 97.3431C198.657 98.8434 199.5 100.878 199.5 103V153C199.5 155.122 198.657 157.157 197.157 158.657C195.656 160.157 193.622 161 191.5 161H64.4999C62.3782 161 60.3433 160.157 58.8431 158.657C57.3428 157.157 56.4999 155.122 56.4999 153V103C56.4999 100.878 57.3428 98.8434 58.8431 97.3431C60.3433 95.8428 62.3782 95 64.4999 95H76.1249C77.1858 95 78.2032 94.5786 78.9533 93.8284C79.7035 93.0783 80.1249 92.0608 80.1249 91C80.1249 89.9391 79.7035 88.9217 78.9533 88.1716C78.2032 87.4214 77.1858 87 76.1249 87H64.4999C61.5795 86.9954 58.7144 87.7964 56.2199 89.315L40.2649 73.36C40.9808 71.998 41.4578 70.5233 41.6749 69L115.88 57.44C116.692 59.0889 117.83 60.5556 119.226 61.7512C120.622 62.9468 122.246 63.8462 124 64.395ZM140.12 57.435L214.325 69C214.541 70.525 215.018 72.0014 215.735 73.365L199.78 89.32C197.286 87.7996 194.421 86.9969 191.5 87H132V64.395C133.754 63.8457 135.379 62.9454 136.775 61.749C138.171 60.5525 139.309 59.0848 140.12 57.435ZM226.705 80.525L235.54 116.44C232.704 118.149 230.592 120.839 229.605 124H207.5V103C207.502 100.206 206.767 97.46 205.37 95.04L221.37 79.015C223.023 79.8849 224.841 80.3992 226.705 80.525ZM248 128C248 129.088 247.677 130.151 247.073 131.056C246.469 131.96 245.61 132.665 244.605 133.081C243.6 133.498 242.494 133.607 241.427 133.394C240.36 133.182 239.38 132.658 238.611 131.889C237.842 131.12 237.318 130.14 237.106 129.073C236.893 128.006 237.002 126.9 237.419 125.895C237.835 124.89 238.54 124.031 239.444 123.427C240.349 122.823 241.412 122.5 242.5 122.5C243.959 122.5 245.358 123.079 246.389 124.111C247.42 125.142 248 126.541 248 128ZM227.68 61.575C228.952 61.5766 230.185 62.0193 231.168 62.8279C232.15 63.6364 232.822 64.7607 233.069 66.0091C233.315 67.2574 233.122 68.5527 232.52 69.6742C231.919 70.7956 230.947 71.6739 229.771 72.1592C228.594 72.6446 227.286 72.707 226.069 72.3359C224.852 71.9648 223.801 71.1831 223.096 70.124C222.39 69.0649 222.074 67.794 222.2 66.5278C222.327 65.2615 222.889 64.0784 223.79 63.18C224.823 62.1505 226.222 61.5732 227.68 61.575ZM128 46C129.088 46 130.151 46.3226 131.056 46.9269C131.96 47.5312 132.665 48.3902 133.081 49.3952C133.498 50.4002 133.606 51.5061 133.394 52.573C133.182 53.6399 132.658 54.6199 131.889 55.3891C131.12 56.1583 130.14 56.6821 129.073 56.8943C128.006 57.1065 126.9 56.9976 125.895 56.5813C124.89 56.165 124.031 55.4601 123.427 54.5556C122.822 53.6511 122.5 52.5878 122.5 51.5C122.5 50.0413 123.079 48.6423 124.111 47.6109C125.142 46.5794 126.541 46 128 46ZM24.4299 63.18C25.1992 62.4111 26.1792 61.8875 27.246 61.6755C28.3129 61.4635 29.4186 61.5725 30.4234 61.9889C31.4283 62.4052 32.2871 63.1102 32.8913 64.0146C33.4956 64.919 33.8181 65.9823 33.8181 67.07C33.8181 68.1577 33.4956 69.2209 32.8913 70.1253C32.2871 71.0298 31.4283 71.7347 30.4234 72.1511C29.4186 72.5674 28.3129 72.6765 27.246 72.4645C26.1792 72.2525 25.1992 71.7289 24.4299 70.96C23.9189 70.4492 23.5136 69.8428 23.237 69.1753C22.9604 68.5079 22.8181 67.7925 22.8181 67.07C22.8181 66.3475 22.9604 65.6321 23.237 64.9646C23.5136 64.2972 23.9189 63.6907 24.4299 63.18ZM7.99991 128C7.99991 126.912 8.32248 125.849 8.92683 124.944C9.53118 124.04 10.3902 123.335 11.3952 122.919C12.4001 122.502 13.506 122.393 14.5729 122.606C15.6398 122.818 16.6198 123.342 17.389 124.111C18.1582 124.88 18.682 125.86 18.8942 126.927C19.1064 127.994 18.9975 129.1 18.5812 130.105C18.165 131.11 17.46 131.969 16.5555 132.573C15.6511 133.177 14.5877 133.5 13.4999 133.5C12.0412 133.5 10.6423 132.921 9.61082 131.889C8.57937 130.858 7.99991 129.459 7.99991 128ZM24.4299 192.82C23.661 192.051 23.1374 191.071 22.9254 190.004C22.7134 188.937 22.8225 187.831 23.2388 186.826C23.6552 185.822 24.3601 184.963 25.2645 184.359C26.169 183.754 27.2322 183.432 28.3199 183.432C29.4076 183.432 30.4709 183.754 31.3753 184.359C32.2797 184.963 32.9846 185.822 33.401 186.826C33.8174 187.831 33.9264 188.937 33.7144 190.004C33.5024 191.071 32.9788 192.051 32.2099 192.82C31.6992 193.331 31.0927 193.736 30.4253 194.013C29.7578 194.289 29.0424 194.432 28.3199 194.432C27.5974 194.432 26.882 194.289 26.2146 194.013C25.5471 193.736 24.9407 193.331 24.4299 192.82ZM128 210C126.912 210 125.849 209.677 124.944 209.073C124.04 208.469 123.335 207.61 122.919 206.605C122.502 205.6 122.393 204.494 122.606 203.427C122.818 202.36 123.342 201.38 124.111 200.611C124.88 199.842 125.86 199.318 126.927 199.106C127.994 198.893 129.1 199.002 130.105 199.419C131.11 199.835 131.969 200.54 132.573 201.444C133.177 202.349 133.5 203.412 133.5 204.5C133.5 205.959 132.92 207.358 131.889 208.389C130.858 209.421 129.459 210 128 210ZM231.57 192.82C230.801 193.589 229.821 194.112 228.754 194.324C227.687 194.536 226.581 194.427 225.576 194.011C224.572 193.595 223.713 192.89 223.108 191.985C222.504 191.081 222.182 190.018 222.182 188.93C222.182 187.842 222.504 186.779 223.108 185.875C223.713 184.97 224.572 184.265 225.576 183.849C226.581 183.433 227.687 183.323 228.754 183.535C229.821 183.747 230.801 184.271 231.57 185.04C232.081 185.551 232.486 186.157 232.763 186.825C233.039 187.492 233.182 188.207 233.182 188.93C233.182 189.652 233.039 190.368 232.763 191.035C232.486 191.703 232.081 192.309 231.57 192.82Z" fill="#FACC14"/>
<path d="M90.625 95H90.73C91.7909 95 92.8083 94.5786 93.5584 93.8284C94.3086 93.0783 94.73 92.0609 94.73 91C94.73 89.9391 94.3086 88.9217 93.5584 88.1716C92.8083 87.4214 91.7909 87 90.73 87H90.625C89.5641 87 88.5467 87.4214 87.7966 88.1716C87.0464 88.9217 86.625 89.9391 86.625 91C86.625 92.0609 87.0464 93.0783 87.7966 93.8284C88.5467 94.5786 89.5641 95 90.625 95ZM71.5 113V143C71.5 144.061 71.9214 145.078 72.6716 145.828C73.4217 146.579 74.4391 147 75.5 147H85.5C90.5391 147 95.3718 144.998 98.935 141.435C102.498 137.872 104.5 133.039 104.5 128C104.5 122.961 102.498 118.128 98.935 114.565C95.3718 111.002 90.5391 109 85.5 109H75.5C74.4391 109 73.4217 109.421 72.6716 110.172C71.9214 110.922 71.5 111.939 71.5 113ZM79.5 117H85.5C88.4174 117 91.2153 118.159 93.2782 120.222C95.3411 122.285 96.5 125.083 96.5 128C96.5 130.917 95.3411 133.715 93.2782 135.778C91.2153 137.841 88.4174 139 85.5 139H79.5V117ZM168 147C170.167 147 172.312 146.573 174.314 145.744C176.316 144.915 178.135 143.699 179.667 142.167C181.199 140.635 182.415 138.816 183.244 136.814C184.073 134.812 184.5 132.667 184.5 130.5V125.5C184.5 121.124 182.762 116.927 179.667 113.833C176.573 110.738 172.376 109 168 109C163.624 109 159.427 110.738 156.333 113.833C153.238 116.927 151.5 121.124 151.5 125.5V130.5C151.5 132.667 151.927 134.812 152.756 136.814C153.585 138.816 154.801 140.635 156.333 142.167C157.865 143.699 159.684 144.915 161.686 145.744C163.688 146.573 165.833 147 168 147ZM159.5 125.5C159.5 123.246 160.396 121.084 161.99 119.49C163.584 117.896 165.746 117 168 117C170.254 117 172.416 117.896 174.01 119.49C175.604 121.084 176.5 123.246 176.5 125.5V130.5C176.5 132.754 175.604 134.916 174.01 136.51C172.416 138.104 170.254 139 168 139C165.746 139 163.584 138.104 161.99 136.51C160.396 134.916 159.5 132.754 159.5 130.5V125.5ZM116 147C117.061 147 118.078 146.579 118.828 145.828C119.579 145.078 120 144.061 120 143V138.5H136V143C136 144.061 136.421 145.078 137.172 145.828C137.922 146.579 138.939 147 140 147C141.061 147 142.078 146.579 142.828 145.828C143.579 145.078 144 144.061 144 143V126C144 121.757 142.314 117.687 139.314 114.686C136.313 111.686 132.243 110 128 110C123.757 110 119.687 111.686 116.686 114.686C113.686 117.687 112 121.757 112 126V143C112 144.061 112.421 145.078 113.172 145.828C113.922 146.579 114.939 147 116 147ZM128 118C130.122 118 132.157 118.843 133.657 120.343C135.157 121.843 136 123.878 136 126V130.5H120V126C120 123.878 120.843 121.843 122.343 120.343C123.843 118.843 125.878 118 128 118Z" fill="#FACC14"/>
</g>
<defs>
<clipPath id="clip0_20_8">
<rect width="256" height="256" fill="white"/>
</clipPath>
</defs>
</svg>
