<svg width="75" height="75" viewBox="0 0 75 75" fill="none" xmlns="http://www.w3.org/2000/svg">
<circle cx="37.0375" cy="37.0376" r="37.0052" transform="rotate(0.050151 37.0375 37.0376)" fill="url(#paint0_linear_24_6)"/>
<path d="M24.25 28.5C23.55 28.5 23 27.95 23 27.25C23 26.55 23.55 26 24.25 26C24.95 26 25.5 26.55 25.5 27.25C25.5 27.95 24.95 28.5 24.25 28.5ZM46.75 28.5C46.05 28.5 45.5 27.95 45.5 27.25C45.5 26.55 46.05 26 46.75 26C47.45 26 48 26.55 48 27.25C48 27.95 47.45 28.5 46.75 28.5ZM44.25 28.5C43.55 28.5 43 27.95 43 27.25C43 26.55 43.55 26 44.25 26C44.95 26 45.5 26.55 45.5 27.25C45.5 27.95 44.95 28.5 44.25 28.5ZM26.75 28.5C26.05 28.5 25.5 27.95 25.5 27.25C25.5 26.55 26.05 26 26.75 26C27.45 26 28 26.55 28 27.25C28 27.95 27.45 28.5 26.75 28.5ZM24.25 31C23.55 31 23 30.45 23 29.75C23 29.05 23.55 28.5 24.25 28.5C24.95 28.5 25.5 29.05 25.5 29.75C25.5 30.45 24.95 31 24.25 31ZM46.75 31C46.05 31 45.5 30.45 45.5 29.75C45.5 29.05 46.05 28.5 46.75 28.5C47.45 28.5 48 29.05 48 29.75C48 30.45 47.45 31 46.75 31ZM26.75 31C26.05 31 25.5 30.45 25.5 29.75C25.5 29.05 26.05 28.5 26.75 28.5C27.45 28.5 28 29.05 28 29.75C28 30.45 27.45 31 26.75 31ZM44.25 31C43.55 31 43 30.45 43 29.75C43 29.05 43.55 28.5 44.25 28.5C44.95 28.5 45.5 29.05 45.5 29.75C45.5 30.45 44.95 31 44.25 31ZM24.25 33.5C23.55 33.5 23 32.95 23 32.25C23 31.55 23.55 31 24.25 31C24.95 31 25.5 31.55 25.5 32.25C25.5 32.95 24.95 33.5 24.25 33.5ZM41.75 33.5C41.05 33.5 40.5 32.95 40.5 32.25C40.5 31.55 41.05 31 41.75 31C42.45 31 43 31.55 43 32.25C43 32.95 42.45 33.5 41.75 33.5ZM29.25 33.5C28.55 33.5 28 32.95 28 32.25C28 31.55 28.55 31 29.25 31C29.95 31 30.5 31.55 30.5 32.25C30.5 32.95 29.95 33.5 29.25 33.5ZM44.25 33.5C43.55 33.5 43 32.95 43 32.25C43 31.55 43.55 31 44.25 31C44.95 31 45.5 31.55 45.5 32.25C45.5 32.95 44.95 33.5 44.25 33.5ZM46.75 33.5C46.05 33.5 45.5 32.95 45.5 32.25C45.5 31.55 46.05 31 46.75 31C47.45 31 48 31.55 48 32.25C48 32.95 47.45 33.5 46.75 33.5ZM26.75 33.5C26.05 33.5 25.5 32.95 25.5 32.25C25.5 31.55 26.05 31 26.75 31C27.45 31 28 31.55 28 32.25C28 32.95 27.45 33.5 26.75 33.5ZM44.25 36C43.55 36 43 35.45 43 34.75C43 34.05 43.55 33.5 44.25 33.5C44.95 33.5 45.5 34.05 45.5 34.75C45.5 35.45 44.95 36 44.25 36ZM24.25 36C23.55 36 23 35.45 23 34.75C23 34.05 23.55 33.5 24.25 33.5C24.95 33.5 25.5 34.05 25.5 34.75C25.5 35.45 24.95 36 24.25 36ZM46.75 36C46.05 36 45.5 35.45 45.5 34.75C45.5 34.05 46.05 33.5 46.75 33.5C47.45 33.5 48 34.05 48 34.75C48 35.45 47.45 36 46.75 36ZM41.75 36C41.05 36 40.5 35.45 40.5 34.75C40.5 34.05 41.05 33.5 41.75 33.5C42.45 33.5 43 34.05 43 34.75C43 35.45 42.45 36 41.75 36ZM26.75 36C26.05 36 25.5 35.45 25.5 34.75C25.5 34.05 26.05 33.5 26.75 33.5C27.45 33.5 28 34.05 28 34.75C28 35.45 27.45 36 26.75 36ZM29.25 36C28.55 36 28 35.45 28 34.75C28 34.05 28.55 33.5 29.25 33.5C29.95 33.5 30.5 34.05 30.5 34.75C30.5 35.45 29.95 36 29.25 36ZM24.25 38.5C23.55 38.5 23 37.95 23 37.25C23 36.55 23.55 36 24.25 36C24.95 36 25.5 36.55 25.5 37.25C25.5 37.95 24.95 38.5 24.25 38.5ZM26.75 38.5C26.05 38.5 25.5 37.95 25.5 37.25C25.5 36.55 26.05 36 26.75 36C27.45 36 28 36.55 28 37.25C28 37.95 27.45 38.5 26.75 38.5ZM44.25 38.5C43.55 38.5 43 37.95 43 37.25C43 36.55 43.55 36 44.25 36C44.95 36 45.5 36.55 45.5 37.25C45.5 37.95 44.95 38.5 44.25 38.5ZM46.75 38.5C46.05 38.5 45.5 37.95 45.5 37.25C45.5 36.55 46.05 36 46.75 36C47.45 36 48 36.55 48 37.25C48 37.95 47.45 38.5 46.75 38.5ZM29.25 38.5C28.55 38.5 28 37.95 28 37.25C28 36.55 28.55 36 29.25 36C29.95 36 30.5 36.55 30.5 37.25C30.5 37.95 29.95 38.5 29.25 38.5ZM41.75 38.5C41.05 38.5 40.5 37.95 40.5 37.25C40.5 36.55 41.05 36 41.75 36C42.45 36 43 36.55 43 37.25C43 37.95 42.45 38.5 41.75 38.5ZM39.25 38.5C38.55 38.5 38 37.95 38 37.25C38 36.55 38.55 36 39.25 36C39.95 36 40.5 36.55 40.5 37.25C40.5 37.95 39.95 38.5 39.25 38.5ZM31.75 38.5C31.05 38.5 30.5 37.95 30.5 37.25C30.5 36.55 31.05 36 31.75 36C32.45 36 33 36.55 33 37.25C33 37.95 32.45 38.5 31.75 38.5ZM24.25 41C23.55 41 23 40.45 23 39.75C23 39.05 23.55 38.5 24.25 38.5C24.95 38.5 25.5 39.05 25.5 39.75C25.5 40.45 24.95 41 24.25 41ZM26.75 41C26.05 41 25.5 40.45 25.5 39.75C25.5 39.05 26.05 38.5 26.75 38.5C27.45 38.5 28 39.05 28 39.75C28 40.45 27.45 41 26.75 41ZM44.25 41C43.55 41 43 40.45 43 39.75C43 39.05 43.55 38.5 44.25 38.5C44.95 38.5 45.5 39.05 45.5 39.75C45.5 40.45 44.95 41 44.25 41ZM46.75 41C46.05 41 45.5 40.45 45.5 39.75C45.5 39.05 46.05 38.5 46.75 38.5C47.45 38.5 48 39.05 48 39.75C48 40.45 47.45 41 46.75 41ZM29.25 41C28.55 41 28 40.45 28 39.75C28 39.05 28.55 38.5 29.25 38.5C29.95 38.5 30.5 39.05 30.5 39.75C30.5 40.45 29.95 41 29.25 41ZM41.75 41C41.05 41 40.5 40.45 40.5 39.75C40.5 39.05 41.05 38.5 41.75 38.5C42.45 38.5 43 39.05 43 39.75C43 40.45 42.45 41 41.75 41ZM31.75 41C31.05 41 30.5 40.45 30.5 39.75C30.5 39.05 31.05 38.5 31.75 38.5C32.45 38.5 33 39.05 33 39.75C33 40.45 32.45 41 31.75 41ZM39.25 41C38.55 41 38 40.45 38 39.75C38 39.05 38.55 38.5 39.25 38.5C39.95 38.5 40.5 39.05 40.5 39.75C40.5 40.45 39.95 41 39.25 41ZM24.25 43.5C23.55 43.5 23 42.95 23 42.25C23 41.55 23.55 41 24.25 41C24.95 41 25.5 41.55 25.5 42.25C25.5 42.95 24.95 43.5 24.25 43.5ZM39.25 43.5C38.55 43.5 38 42.95 38 42.25C38 41.55 38.55 41 39.25 41C39.95 41 40.5 41.55 40.5 42.25C40.5 42.95 39.95 43.5 39.25 43.5ZM34.25 43.5C33.55 43.5 33 42.95 33 42.25C33 41.55 33.55 41 34.25 41C34.95 41 35.5 41.55 35.5 42.25C35.5 42.95 34.95 43.5 34.25 43.5ZM44.25 43.5C43.55 43.5 43 42.95 43 42.25C43 41.55 43.55 41 44.25 41C44.95 41 45.5 41.55 45.5 42.25C45.5 42.95 44.95 43.5 44.25 43.5ZM26.75 43.5C26.05 43.5 25.5 42.95 25.5 42.25C25.5 41.55 26.05 41 26.75 41C27.45 41 28 41.55 28 42.25C28 42.95 27.45 43.5 26.75 43.5ZM36.75 43.5C36.05 43.5 35.5 42.95 35.5 42.25C35.5 41.55 36.05 41 36.75 41C37.45 41 38 41.55 38 42.25C38 42.95 37.45 43.5 36.75 43.5ZM46.75 43.5C46.05 43.5 45.5 42.95 45.5 42.25C45.5 41.55 46.05 41 46.75 41C47.45 41 48 41.55 48 42.25C48 42.95 47.45 43.5 46.75 43.5ZM31.75 43.5C31.05 43.5 30.5 42.95 30.5 42.25C30.5 41.55 31.05 41 31.75 41C32.45 41 33 41.55 33 42.25C33 42.95 32.45 43.5 31.75 43.5ZM36.75 46C36.05 46 35.5 45.45 35.5 44.75C35.5 44.05 36.05 43.5 36.75 43.5C37.45 43.5 38 44.05 38 44.75C38 45.45 37.45 46 36.75 46ZM31.75 46C31.05 46 30.5 45.45 30.5 44.75C30.5 44.05 31.05 43.5 31.75 43.5C32.45 43.5 33 44.05 33 44.75C33 45.45 32.45 46 31.75 46ZM46.75 46C46.05 46 45.5 45.45 45.5 44.75C45.5 44.05 46.05 43.5 46.75 43.5C47.45 43.5 48 44.05 48 44.75C48 45.45 47.45 46 46.75 46ZM44.25 46C43.55 46 43 45.45 43 44.75C43 44.05 43.55 43.5 44.25 43.5C44.95 43.5 45.5 44.05 45.5 44.75C45.5 45.45 44.95 46 44.25 46ZM34.25 46C33.55 46 33 45.45 33 44.75C33 44.05 33.55 43.5 34.25 43.5C34.95 43.5 35.5 44.05 35.5 44.75C35.5 45.45 34.95 46 34.25 46ZM26.75 46C26.05 46 25.5 45.45 25.5 44.75C25.5 44.05 26.05 43.5 26.75 43.5C27.45 43.5 28 44.05 28 44.75C28 45.45 27.45 46 26.75 46ZM24.25 46C23.55 46 23 45.45 23 44.75C23 44.05 23.55 43.5 24.25 43.5C24.95 43.5 25.5 44.05 25.5 44.75C25.5 45.45 24.95 46 24.25 46ZM39.25 46C38.55 46 38 45.45 38 44.75C38 44.05 38.55 43.5 39.25 43.5C39.95 43.5 40.5 44.05 40.5 44.75C40.5 45.45 39.95 46 39.25 46ZM34.25 48.5C33.55 48.5 33 47.95 33 47.25C33 46.55 33.55 46 34.25 46C34.95 46 35.5 46.55 35.5 47.25C35.5 47.95 34.95 48.5 34.25 48.5ZM44.25 48.5C43.55 48.5 43 47.95 43 47.25C43 46.55 43.55 46 44.25 46C44.95 46 45.5 46.55 45.5 47.25C45.5 47.95 44.95 48.5 44.25 48.5ZM46.75 48.5C46.05 48.5 45.5 47.95 45.5 47.25C45.5 46.55 46.05 46 46.75 46C47.45 46 48 46.55 48 47.25C48 47.95 47.45 48.5 46.75 48.5ZM26.75 48.5C26.05 48.5 25.5 47.95 25.5 47.25C25.5 46.55 26.05 46 26.75 46C27.45 46 28 46.55 28 47.25C28 47.95 27.45 48.5 26.75 48.5ZM24.25 48.5C23.55 48.5 23 47.95 23 47.25C23 46.55 23.55 46 24.25 46C24.95 46 25.5 46.55 25.5 47.25C25.5 47.95 24.95 48.5 24.25 48.5ZM36.75 48.5C36.05 48.5 35.5 47.95 35.5 47.25C35.5 46.55 36.05 46 36.75 46C37.45 46 38 46.55 38 47.25C38 47.95 37.45 48.5 36.75 48.5ZM34.25 51C33.55 51 33 50.45 33 49.75C33 49.05 33.55 48.5 34.25 48.5C34.95 48.5 35.5 49.05 35.5 49.75C35.5 50.45 34.95 51 34.25 51ZM26.75 51C26.05 51 25.5 50.45 25.5 49.75C25.5 49.05 26.05 48.5 26.75 48.5C27.45 48.5 28 49.05 28 49.75C28 50.45 27.45 51 26.75 51ZM46.75 51C46.05 51 45.5 50.45 45.5 49.75C45.5 49.05 46.05 48.5 46.75 48.5C47.45 48.5 48 49.05 48 49.75C48 50.45 47.45 51 46.75 51ZM44.25 51C43.55 51 43 50.45 43 49.75C43 49.05 43.55 48.5 44.25 48.5C44.95 48.5 45.5 49.05 45.5 49.75C45.5 50.45 44.95 51 44.25 51ZM36.75 51C36.05 51 35.5 50.45 35.5 49.75C35.5 49.05 36.05 48.5 36.75 48.5C37.45 48.5 38 49.05 38 49.75C38 50.45 37.45 51 36.75 51ZM24.25 51C23.55 51 23 50.45 23 49.75C23 49.05 23.55 48.5 24.25 48.5C24.95 48.5 25.5 49.05 25.5 49.75C25.5 50.45 24.95 51 24.25 51Z" fill="white"/>
<defs>
<linearGradient id="paint0_linear_24_6" x1="14.9632" y1="-4.9807" x2="48.0376" y2="79.9904" gradientUnits="userSpaceOnUse">
<stop stop-color="#FACC14"/>
<stop offset="1" stop-color="#F97316"/>
</linearGradient>
</defs>
</svg>
